<?xml version="1.0" standalone="no"?>
<!DOCTYPE svg PUBLIC "-//W3C//DTD SVG 20010904//EN"
 "http://www.w3.org/TR/2001/REC-SVG-20010904/DTD/svg10.dtd">
<svg version="1.0" xmlns="http://www.w3.org/2000/svg"
 width="512.000000pt" height="512.000000pt" viewBox="0 0 512.000000 512.000000"
 preserveAspectRatio="xMidYMid meet">

<g transform="translate(0.000000,512.000000) scale(0.100000,-0.100000)"
fill="#000000" stroke="none">
<path d="M63 5110 c-56 -23 -54 -1 -51 -711 l3 -654 28 -100 c69 -253 244
-500 456 -644 215 -147 503 -221 742 -192 l102 13 216 -216 216 -216 -762
-762 c-820 -822 -795 -794 -839 -944 -26 -89 -22 -222 8 -311 121 -347 537
-482 830 -270 35 25 394 377 798 781 l735 736 765 -764 c738 -737 768 -765
840 -800 349 -168 740 77 740 464 0 42 -7 101 -16 131 -35 118 -69 164 -289
388 -115 117 -223 222 -238 233 -34 24 -88 26 -122 4 -27 -18 -44 -67 -37
-106 3 -16 91 -112 237 -260 256 -260 265 -273 265 -394 0 -83 -26 -150 -82
-212 -66 -72 -129 -99 -233 -98 -63 0 -90 5 -130 23 -40 19 -247 220 -1070
1042 l-1020 1019 222 222 223 223 492 -492 c287 -287 505 -497 523 -503 78
-30 162 58 125 131 -7 13 -114 126 -239 252 l-226 227 643 643 642 642 275
597 c199 432 275 607 275 633 0 47 -45 95 -88 95 -18 0 -269 -110 -629 -275
l-598 -275 -645 -645 -645 -645 -214 214 -213 213 12 77 c19 114 8 289 -24
399 -99 334 -360 588 -701 679 -43 11 -137 22 -245 29 -384 22 -633 112 -901
325 -82 65 -107 74 -156 54z m269 -373 c85 -49 235 -110 347 -142 126 -36 245
-54 431 -64 170 -10 256 -28 344 -73 l40 -20 -50 -22 c-250 -107 -413 -304
-488 -591 -34 -126 -81 -211 -166 -296 -78 -78 -195 -141 -305 -164 l-70 -15
-27 33 c-35 41 -103 171 -129 245 -47 134 -49 166 -49 689 l0 495 28 -18 c15
-10 57 -35 94 -57z m4293 -483 l-178 -386 -209 209 c-114 114 -208 211 -208
214 0 3 143 72 318 152 436 201 446 206 451 201 2 -2 -76 -177 -174 -390z
m-2882 -26 c166 -205 204 -520 93 -771 -70 -160 -200 -293 -363 -376 -112 -56
-201 -75 -348 -74 -183 1 -336 45 -481 138 l-58 37 50 17 c147 52 285 156 386
291 47 62 96 172 133 300 50 173 100 255 209 348 84 71 220 129 308 131 32 1
41 -5 71 -41z m2349 -285 c131 -131 238 -242 238 -248 0 -13 -1182 -1195
-1195 -1195 -6 0 -118 108 -250 240 l-240 240 600 600 c330 330 602 600 605
600 3 0 112 -107 242 -237z m-1862 -838 l225 -225 -223 -222 -222 -223 -225
225 c-124 124 -225 228 -225 231 0 4 24 21 53 37 135 76 274 213 348 341 19
33 36 61 39 61 3 0 106 -101 230 -225z m-372 -1892 l-548 -548 -245 245 -245
245 547 547 548 548 245 -245 245 -245 -547 -547z m-936 -440 c131 -131 238
-243 238 -249 0 -6 -58 -68 -129 -137 -163 -157 -208 -182 -331 -182 -71 0
-94 4 -141 26 -110 52 -176 138 -199 259 -12 65 0 142 32 209 13 28 73 98 152
179 71 72 132 132 135 132 3 0 113 -107 243 -237z"/>
<path d="M3899 1581 c-77 -78 7 -198 109 -155 44 18 68 72 52 119 -23 69 -109
88 -161 36z"/>
</g>
</svg>
