<?xml version="1.0" standalone="no"?>
<!DOCTYPE svg PUBLIC "-//W3C//DTD SVG 20010904//EN"
 "http://www.w3.org/TR/2001/REC-SVG-20010904/DTD/svg10.dtd">
<svg version="1.0" xmlns="http://www.w3.org/2000/svg"
 width="512.000000pt" height="512.000000pt" viewBox="0 0 512.000000 512.000000"
 preserveAspectRatio="xMidYMid meet">

<g transform="translate(0.000000,512.000000) scale(0.100000,-0.100000)"
fill="#000000" stroke="none">
<path d="M1653 4745 c-166 -45 -287 -171 -322 -333 -7 -35 -11 -230 -11 -588
0 -419 -3 -535 -12 -538 -269 -81 -425 -170 -588 -336 -480 -485 -478 -1263 4
-1746 162 -161 319 -250 584 -330 8 -2 12 -23 12 -58 0 -215 132 -388 337
-441 49 -13 240 -15 1380 -15 941 0 1337 3 1375 11 119 26 241 117 293 219 57
113 55 41 55 1585 0 1531 2 1472 -51 1578 -29 58 -885 916 -949 951 -105 57
-81 56 -1110 55 -780 0 -954 -3 -997 -14z m1747 -585 c0 -228 4 -378 11 -412
35 -164 173 -302 337 -337 34 -7 184 -11 413 -11 l359 0 -2 -1332 -3 -1333
-24 -38 c-13 -21 -42 -50 -64 -65 l-41 -27 -1346 0 -1346 0 -41 27 c-54 35
-83 85 -90 153 l-6 55 64 0 c81 0 232 23 329 50 180 51 383 172 525 315 371
371 469 932 245 1402 -66 139 -137 240 -245 348 -193 193 -422 308 -695 350
-52 8 -123 15 -157 15 l-63 0 0 513 c0 329 4 526 11 550 13 47 77 113 121 126
20 5 375 10 871 10 l837 1 0 -360z m677 -83 c227 -227 413 -418 413 -425 0
-10 -75 -12 -357 -10 -357 3 -358 3 -396 27 -21 13 -50 42 -65 64 l-27 40 -3
359 c-2 283 0 358 10 358 7 0 198 -186 425 -413z m-2312 -1012 c400 -70 707
-357 808 -755 25 -102 30 -327 8 -425 -68 -310 -261 -560 -538 -699 -259 -130
-573 -138 -838 -23 -525 229 -754 852 -499 1360 198 396 629 617 1059 542z"/>
<path d="M2355 3631 c-44 -19 -70 -60 -70 -112 0 -42 5 -53 33 -81 l32 -33
290 0 290 0 32 33 c28 28 33 39 33 82 0 43 -5 54 -33 82 l-32 33 -278 2 c-152
1 -286 -2 -297 -6z"/>
<path d="M3155 2991 c-44 -19 -70 -60 -70 -112 0 -42 5 -53 33 -81 l32 -33
450 0 450 0 32 33 c28 28 33 39 33 82 0 43 -5 54 -33 82 l-32 33 -438 2 c-240
1 -446 -2 -457 -6z"/>
<path d="M3315 2351 c-44 -19 -70 -60 -70 -112 0 -42 5 -53 33 -81 l32 -33
370 0 370 0 32 33 c28 28 33 39 33 82 0 43 -5 54 -33 82 l-32 33 -358 2 c-196
1 -366 -2 -377 -6z"/>
<path d="M3155 1711 c-44 -19 -70 -60 -70 -112 0 -42 5 -53 33 -81 l32 -33
450 0 450 0 32 33 c28 28 33 39 33 82 0 43 -5 54 -33 82 l-32 33 -438 2 c-240
1 -446 -2 -457 -6z"/>
<path d="M1543 2660 c-56 -33 -58 -44 -61 -300 l-4 -235 -108 -110 c-112 -115
-128 -144 -115 -205 9 -39 67 -90 104 -90 35 0 83 38 244 192 l117 113 0 290
c0 318 0 319 -60 350 -39 20 -79 19 -117 -5z"/>
</g>
</svg>
