<?xml version="1.0" standalone="no"?>
<!DOCTYPE svg PUBLIC "-//W3C//DTD SVG 20010904//EN"
 "http://www.w3.org/TR/2001/REC-SVG-20010904/DTD/svg10.dtd">
<svg version="1.0" xmlns="http://www.w3.org/2000/svg"
 width="512.000000pt" height="512.000000pt" viewBox="0 0 512.000000 512.000000"
 preserveAspectRatio="xMidYMid meet">

<g transform="translate(0.000000,512.000000) scale(0.100000,-0.100000)"
fill="#000000" stroke="none">
<path d="M2575 3825 c-82 -32 -135 -109 -135 -199 0 -30 5 -67 11 -83 5 -15
174 -192 375 -393 200 -201 364 -369 364 -373 0 -4 -488 -7 -1085 -7 -957 0
-1090 -2 -1123 -15 -169 -71 -169 -319 0 -390 33 -13 166 -15 1123 -15 597 0
1085 -3 1085 -8 0 -4 -160 -167 -356 -362 -195 -195 -364 -372 -375 -392 -23
-44 -25 -133 -6 -181 18 -42 85 -101 132 -117 44 -14 121 -8 162 14 15 8 251
239 524 513 541 543 538 540 562 677 14 82 1 167 -38 251 -24 53 -89 122 -519
553 -281 282 -507 502 -529 513 -52 27 -122 32 -172 14z"/>
</g>
</svg>
