<?xml version="1.0" standalone="no"?>
<!DOCTYPE svg PUBLIC "-//W3C//DTD SVG 20010904//EN"
 "http://www.w3.org/TR/2001/REC-SVG-20010904/DTD/svg10.dtd">
<svg version="1.0" xmlns="http://www.w3.org/2000/svg"
 width="512.000000pt" height="512.000000pt" viewBox="0 0 512.000000 512.000000"
 preserveAspectRatio="xMidYMid meet">

<g transform="translate(0.000000,512.000000) scale(0.100000,-0.100000)"
fill="#000000" stroke="none">
<path d="M223 5101 c-72 -24 -127 -65 -163 -120 -64 -96 -60 31 -58 -1961 l3
-1815 26 -56 c33 -71 87 -125 158 -158 54 -25 65 -26 254 -29 l197 -4 0 161 0
161 -160 0 -160 0 0 1760 0 1760 1760 0 1760 0 0 -160 0 -160 161 0 161 0 -4
198 c-3 188 -4 199 -29 253 -33 71 -87 125 -158 158 l-56 26 -1820 2 c-1731 2
-1823 2 -1872 -16z"/>
<path d="M1183 4141 c-72 -24 -127 -65 -163 -120 -64 -96 -60 31 -58 -1961 l3
-1815 26 -56 c33 -71 87 -125 158 -158 l56 -26 1835 0 1835 0 56 26 c71 33
125 87 158 158 l26 56 0 1835 0 1835 -26 56 c-33 71 -87 125 -158 158 l-56 26
-1820 2 c-1731 2 -1823 2 -1872 -16z m3617 -2061 l0 -1760 -1760 0 -1760 0 0
1760 0 1760 1760 0 1760 0 0 -1760z"/>
<path d="M3743 3022 c-109 -39 -178 -112 -210 -221 -29 -102 4 -228 82 -306
122 -121 328 -121 450 0 21 21 49 63 64 94 54 115 27 264 -64 356 -82 81 -219
114 -322 77z"/>
<path d="M2655 2381 c-27 -13 -202 -182 -536 -517 -525 -527 -529 -532 -515
-607 10 -50 42 -94 85 -117 40 -20 51 -20 1351 -20 1084 0 1316 2 1343 14 69
28 107 104 92 184 -5 32 -52 83 -363 394 -311 311 -362 358 -394 363 -80 15
-102 2 -235 -128 l-124 -121 -272 272 c-317 316 -335 328 -432 283z"/>
</g>
</svg>
