<?xml version="1.0" standalone="no"?>
<!DOCTYPE svg PUBLIC "-//W3C//DTD SVG 20010904//EN"
 "http://www.w3.org/TR/2001/REC-SVG-20010904/DTD/svg10.dtd">
<svg version="1.0" xmlns="http://www.w3.org/2000/svg"
 width="512.000000pt" height="512.000000pt" viewBox="0 0 512.000000 512.000000"
 preserveAspectRatio="xMidYMid meet">

<g transform="translate(0.000000,512.000000) scale(0.100000,-0.100000)"
fill="#000000" stroke="none">
<path d="M2420 4954 c-200 -26 -408 -102 -565 -207 -83 -56 -108 -77 -203
-170 -168 -165 -284 -376 -344 -627 -19 -77 -21 -125 -25 -497 l-5 -413 -42 0
c-187 0 -372 -147 -421 -335 -13 -51 -15 -196 -15 -1105 0 -1154 -2 -1110 63
-1218 37 -62 103 -127 167 -165 102 -59 37 -57 1530 -57 1491 0 1422 -3 1532
57 56 31 133 108 171 173 59 101 57 68 57 1210 0 1142 2 1109 -57 1210 -38 65
-115 142 -171 173 -58 32 -151 57 -208 57 l-42 0 -5 413 c-4 372 -6 420 -25
497 -123 511 -496 878 -1002 986 -73 15 -320 27 -390 18z m303 -329 c372 -65
665 -336 770 -714 19 -70 21 -106 25 -473 l3 -398 -960 0 -961 0 0 359 c0 273
4 379 15 444 61 350 311 638 654 752 134 44 306 56 454 30z m1214 -1925 c67
-40 63 27 63 -1100 0 -1127 4 -1060 -63 -1100 -31 -20 -61 -20 -1377 -20
-1316 0 -1346 0 -1377 20 -67 40 -63 -27 -63 1100 0 1127 -4 1060 63 1100 31
20 61 20 1377 20 1316 0 1346 0 1377 -20z"/>
</g>
</svg>
