<?xml version="1.0" standalone="no"?>
<!DOCTYPE svg PUBLIC "-//W3C//DTD SVG 20010904//EN"
 "http://www.w3.org/TR/2001/REC-SVG-20010904/DTD/svg10.dtd">
<svg version="1.0" xmlns="http://www.w3.org/2000/svg"
 width="512.000000pt" height="512.000000pt" viewBox="0 0 512.000000 512.000000"
 preserveAspectRatio="xMidYMid meet">

<g transform="translate(0.000000,512.000000) scale(0.100000,-0.100000)"
fill="#000000" stroke="none">
<path d="M390 3054 c-172 -46 -309 -175 -360 -342 -27 -87 -27 -217 0 -304 39
-126 140 -245 255 -302 122 -60 -23 -56 2275 -56 2298 0 2155 -4 2277 56 111
54 214 177 254 303 27 85 28 217 4 292 -61 185 -206 321 -383 358 -38 8 -658
11 -2160 10 -1814 0 -2115 -2 -2162 -15z"/>
</g>
</svg>
