<?xml version="1.0" standalone="no"?>
<!DOCTYPE svg PUBLIC "-//W3C//DTD SVG 20010904//EN"
 "http://www.w3.org/TR/2001/REC-SVG-20010904/DTD/svg10.dtd">
<svg version="1.0" xmlns="http://www.w3.org/2000/svg"
 width="512.000000pt" height="512.000000pt" viewBox="0 0 512.000000 512.000000"
 preserveAspectRatio="xMidYMid meet">

<g transform="translate(0.000000,512.000000) scale(0.100000,-0.100000)"
fill="#000000" stroke="none">
<path d="M411 4974 c-189 -51 -349 -219 -396 -415 -43 -184 4 -335 125 -403
l55 -31 388 -3 387 -3 0 -1085 c0 -1071 0 -1084 20 -1104 30 -30 83 -27 110 7
l21 26 -3 1286 c-3 1222 -4 1289 -22 1341 -26 78 -58 138 -106 198 l-41 52
1478 -2 1478 -3 58 -27 c80 -38 160 -117 200 -197 l32 -66 3 -415 2 -415 -64
-37 c-96 -56 -257 -179 -372 -284 l-102 -94 -927 -2 -927 -3 -19 -24 c-25 -30
-24 -62 2 -95 l20 -26 861 0 861 0 -27 -32 c-14 -18 -65 -90 -112 -160 l-86
-128 -749 0 -748 0 -21 -22 c-32 -35 -23 -95 17 -114 10 -5 333 -11 719 -14
l701 -5 -44 -109 c-24 -61 -49 -129 -55 -153 l-10 -43 -653 0 -654 0 -20 -26
c-26 -33 -27 -65 -2 -95 l19 -24 637 -3 637 -2 -6 -30 c-3 -17 -8 -67 -12
-113 l-6 -82 -148 -150 c-81 -82 -151 -160 -155 -172 -7 -26 17 -78 40 -87 43
-16 62 -3 215 148 l155 153 100 7 c278 17 582 134 908 350 l27 18 0 -631 0
-631 -1017 -2 -1018 -3 -45 -23 c-120 -59 -173 -145 -189 -304 -7 -74 -17
-112 -40 -161 -37 -78 -118 -157 -198 -195 -52 -24 -69 -27 -168 -27 -99 0
-116 3 -168 27 -75 35 -165 125 -203 203 l-29 60 -5 566 c-5 540 -6 568 -24
588 -25 27 -79 28 -106 1 -20 -20 -20 -33 -20 -571 0 -606 0 -611 62 -733 45
-88 156 -196 248 -240 40 -19 96 -40 124 -46 35 -7 497 -10 1466 -8 l1415 3
66 26 c176 68 309 216 354 394 35 137 13 253 -65 338 -60 66 -125 96 -221 104
l-69 6 0 685 0 686 148 150 c177 180 302 341 302 390 0 50 -48 84 -94 66 -13
-4 -61 -57 -107 -117 -296 -384 -703 -671 -1104 -777 -199 -53 -243 -111 443
576 552 553 612 616 612 645 0 37 -38 73 -79 73 -21 0 -143 -117 -637 -611
-607 -607 -612 -611 -603 -566 39 212 143 458 278 662 308 465 808 823 1284
919 96 20 137 8 164 -49 16 -34 16 -41 0 -121 -22 -104 -68 -245 -113 -343
-39 -85 -43 -130 -14 -156 26 -23 74 -24 99 -1 43 39 146 319 177 482 21 108
14 164 -26 227 -60 95 -159 137 -274 117 -105 -19 -239 -57 -346 -99 -56 -23
-104 -41 -106 -41 -2 0 -4 161 -4 358 0 398 -3 423 -66 543 -65 124 -190 225
-330 269 -66 20 -80 20 -1778 19 -1461 0 -1719 -2 -1765 -15z m322 -172 c114
-53 199 -162 226 -290 6 -29 11 -96 11 -148 l0 -95 -375 3 -375 3 -30 30 c-26
26 -31 41 -36 97 -18 182 93 354 269 419 81 30 225 21 310 -19z m3747 -3974
c70 -36 85 -65 84 -161 0 -62 -6 -94 -22 -130 -35 -78 -88 -143 -154 -187
-112 -75 -30 -70 -1318 -68 l-1154 3 31 35 c80 93 119 187 133 329 12 111 32
150 93 180 42 21 46 21 1152 21 l1111 0 44 -22z"/>
<path d="M1902 4334 c-106 -53 -165 -190 -111 -258 42 -53 129 -18 129 51 0
35 51 83 88 83 42 0 80 -34 88 -78 14 -80 90 -111 134 -54 18 22 21 35 16 70
-22 166 -196 260 -344 186z"/>
<path d="M3390 4344 c-89 -39 -150 -124 -150 -211 0 -106 130 -115 147 -11 8
52 44 88 87 88 48 0 74 -24 92 -85 9 -31 24 -59 34 -65 29 -15 65 -12 91 8 48
40 17 165 -57 230 -68 60 -168 79 -244 46z"/>
<path d="M2540 3997 c-34 -17 -53 -58 -41 -90 14 -36 87 -94 144 -113 35 -12
71 -15 121 -12 155 10 277 127 206 198 -34 34 -69 30 -121 -12 -25 -20 -53
-32 -83 -35 -59 -7 -89 1 -128 36 -42 36 -67 44 -98 28z"/>
<path d="M1795 1555 c-30 -30 -32 -64 -4 -99 l20 -26 280 0 c266 0 280 1 299
20 30 30 27 83 -6 109 -26 20 -39 21 -296 21 l-269 0 -24 -25z"/>
</g>
</svg>
