<?xml version="1.0" standalone="no"?>
<!DOCTYPE svg PUBLIC "-//W3C//DTD SVG 20010904//EN"
 "http://www.w3.org/TR/2001/REC-SVG-20010904/DTD/svg10.dtd">
<svg version="1.0" xmlns="http://www.w3.org/2000/svg"
 width="512.000000pt" height="512.000000pt" viewBox="0 0 512.000000 512.000000"
 preserveAspectRatio="xMidYMid meet">

<g transform="translate(0.000000,512.000000) scale(0.100000,-0.100000)"
fill="#000000" stroke="none">
<path d="M2387 5110 c-194 -49 -322 -247 -289 -446 18 -106 62 -182 162 -277
87 -83 222 -189 363 -287 107 -74 118 -73 254 20 369 252 474 365 503 541 38
226 -127 436 -352 447 -93 5 -153 -13 -230 -67 l-54 -38 -30 24 c-16 14 -58
39 -92 55 -70 34 -166 45 -235 28z m151 -207 c21 -9 65 -46 100 -82 56 -59 66
-66 101 -66 35 0 47 8 103 61 76 73 113 94 169 94 77 0 147 -59 170 -145 23
-81 -12 -157 -113 -250 -75 -68 -315 -245 -333 -245 -15 0 -241 172 -323 246
-40 36 -81 83 -92 104 -56 109 -23 226 79 280 45 24 92 25 139 3z"/>
<path d="M4595 4668 c-11 -6 -55 -45 -97 -86 l-78 -76 -28 27 c-52 50 -113 53
-156 10 -37 -37 -36 -91 4 -136 17 -19 30 -39 30 -44 0 -5 -16 -24 -35 -43
l-35 -34 -35 34 c-29 28 -44 35 -76 35 -34 0 -46 -6 -70 -33 -41 -46 -39 -90
5 -140 l35 -38 -402 -401 -402 -402 -120 60 c-163 80 -283 111 -435 112 -134
0 -208 -16 -319 -70 -90 -45 -220 -163 -283 -261 -25 -37 -71 -107 -104 -157
-158 -241 -408 -414 -704 -489 -167 -43 -198 -54 -309 -111 -241 -125 -420
-340 -497 -600 -35 -120 -44 -324 -20 -465 106 -609 673 -1194 1296 -1336 104
-24 359 -24 452 -1 190 47 350 139 483 279 155 161 224 297 290 570 14 59 23
118 20 131 -11 42 -51 72 -97 72 -64 0 -90 -38 -122 -176 -33 -140 -73 -240
-132 -331 -112 -173 -270 -290 -465 -344 -97 -27 -306 -25 -422 4 -513 128
-1007 642 -1102 1147 -25 133 -17 313 19 420 70 206 214 369 411 464 90 43
138 59 275 91 263 61 541 242 721 468 32 40 86 118 121 175 178 291 391 382
683 290 67 -21 188 -74 205 -90 2 -2 -180 -188 -405 -413 l-410 -410 -55 0
c-121 0 -250 -55 -350 -149 -231 -216 -234 -580 -6 -801 253 -248 662 -199
856 102 47 72 76 158 85 255 l7 70 407 407 407 407 37 -78 c101 -216 104 -444
6 -597 -45 -72 -126 -147 -221 -204 -106 -64 -123 -82 -123 -134 0 -33 6 -45
33 -69 19 -17 44 -29 60 -29 40 0 215 106 294 179 84 77 150 176 190 283 27
71 32 100 36 205 7 185 -26 325 -120 506 l-44 86 402 402 403 403 45 -42 c65
-60 132 -56 170 10 25 42 14 84 -34 133 l-40 41 40 39 39 38 45 -41 c56 -52
108 -58 149 -17 46 47 40 109 -18 165 l-35 34 79 81 c82 83 98 115 86 162 -8
34 -394 426 -441 448 -38 18 -52 18 -79 3z m160 -358 l119 -120 -34 -35 -34
-35 -123 122 -123 122 32 33 c18 18 34 33 38 33 3 0 59 -54 125 -120z m-210
-210 l119 -120 -39 -40 -39 -40 -123 122 -123 122 37 38 c20 21 40 38 43 38 3
0 59 -54 125 -120z m-220 -220 l120 -120 -38 -37 -37 -38 -122 122 -122 123
34 35 c19 19 36 35 40 35 3 0 59 -54 125 -120z m-216 -217 l122 -117 -737
-737 -737 -737 -37 56 c-39 61 -112 131 -172 166 l-38 21 733 733 c402 402
734 732 737 732 3 0 61 -53 129 -117z m-1693 -1526 c102 -52 161 -126 190
-236 41 -162 -44 -336 -199 -407 -53 -25 -75 -29 -147 -29 -76 0 -93 3 -152
33 -144 71 -227 227 -199 375 25 139 118 244 251 288 14 5 66 7 115 6 74 -3
99 -8 141 -30z"/>
<path d="M1180 4369 c-540 -182 -657 -225 -677 -246 l-23 -22 0 -396 0 -397
-33 9 c-17 4 -70 8 -117 8 -68 0 -94 -5 -131 -23 -74 -36 -125 -87 -161 -160
-30 -60 -33 -75 -33 -152 1 -77 4 -91 35 -148 67 -126 173 -186 315 -180 95 4
158 30 222 94 100 101 103 121 103 728 l0 503 283 97 c155 53 285 96 290 96 4
0 7 -138 7 -306 0 -279 -1 -306 -16 -300 -92 35 -182 30 -273 -15 -117 -58
-185 -169 -185 -300 0 -66 5 -86 32 -142 38 -76 92 -129 171 -166 46 -21 70
-26 136 -26 68 0 89 5 139 29 73 36 131 94 165 166 l26 55 3 593 3 593 -30 29
c-41 41 -76 39 -251 -21z m16 -994 c109 -71 68 -235 -63 -251 -75 -10 -146 56
-146 136 0 108 120 174 209 115z m-766 -280 c64 -61 61 -145 -5 -204 -85 -75
-225 -9 -225 106 0 39 29 89 65 114 45 30 125 22 165 -16z"/>
<path d="M4238 1703 c-14 -9 -31 -27 -37 -40 -7 -16 -11 -156 -11 -410 0 -363
-1 -385 -17 -378 -39 17 -181 18 -227 2 -188 -64 -281 -276 -201 -456 36 -79
113 -151 193 -181 46 -18 72 -21 133 -18 131 8 230 74 291 196 l23 47 3 508
c1 279 4 507 5 507 2 0 50 -16 107 -35 145 -49 183 -46 216 17 20 38 12 87
-19 115 -25 23 -369 143 -407 143 -14 0 -37 -8 -52 -17z m-111 -1033 c114 -69
61 -250 -73 -250 -66 0 -130 52 -134 110 -5 65 1 83 39 121 34 35 44 39 87 39
31 0 61 -7 81 -20z"/>
<path d="M1566 1455 c-41 -22 -55 -44 -56 -89 0 -37 7 -47 129 -170 123 -124
132 -131 170 -131 73 0 121 77 88 141 -22 42 -227 241 -260 253 -36 14 -36 14
-71 -4z"/>
<path d="M3039 1411 c-54 -54 -32 -140 41 -162 33 -10 43 -9 71 8 20 11 39 33
47 55 37 96 -86 172 -159 99z"/>
<path d="M1130 1329 c-60 -24 -84 -83 -57 -135 9 -16 139 -152 289 -301 246
-245 277 -273 306 -273 71 0 121 55 108 117 -9 37 -559 588 -596 596 -14 3
-36 1 -50 -4z"/>
</g>
</svg>
