<?xml version="1.0" standalone="no"?>
<!DOCTYPE svg PUBLIC "-//W3C//DTD SVG 20010904//EN"
 "http://www.w3.org/TR/2001/REC-SVG-20010904/DTD/svg10.dtd">
<svg version="1.0" xmlns="http://www.w3.org/2000/svg"
 width="512.000000pt" height="512.000000pt" viewBox="0 0 512.000000 512.000000"
 preserveAspectRatio="xMidYMid meet">

<g transform="translate(0.000000,512.000000) scale(0.100000,-0.100000)"
fill="#000000" stroke="none">
<path d="M2380 4945 c-293 -47 -576 -227 -747 -476 -46 -67 -110 -200 -138
-286 -49 -150 -55 -222 -55 -700 l0 -443 -108 0 c-65 0 -131 -6 -167 -15 -172
-45 -305 -179 -350 -352 -23 -87 -22 -2060 0 -2148 47 -178 197 -321 374 -355
74 -14 2668 -14 2742 0 184 35 345 196 379 379 14 74 14 2030 0 2102 -25 131
-124 266 -239 328 -120 64 -69 61 -1244 61 l-1068 0 3 468 c3 395 6 475 20
522 32 107 60 170 108 244 278 426 875 489 1234 130 142 -142 216 -309 235
-529 9 -102 20 -129 75 -169 39 -29 133 -29 172 0 73 54 87 123 60 299 -44
291 -199 553 -428 726 -246 185 -554 262 -858 214z m1524 -2239 c18 -8 46 -31
62 -52 l29 -37 0 -1018 c0 -1012 0 -1018 -21 -1045 -11 -15 -33 -37 -48 -48
-27 -21 -30 -21 -1365 -21 l-1338 0 -37 29 c-70 53 -66 -10 -66 1085 0 677 3
999 11 1018 14 37 47 73 84 89 46 20 2640 20 2689 0z"/>
</g>
</svg>
