<?xml version="1.0" standalone="no"?>
<!DOCTYPE svg PUBLIC "-//W3C//DTD SVG 20010904//EN"
 "http://www.w3.org/TR/2001/REC-SVG-20010904/DTD/svg10.dtd">
<svg version="1.0" xmlns="http://www.w3.org/2000/svg"
 width="512.000000pt" height="512.000000pt" viewBox="0 0 512.000000 512.000000"
 preserveAspectRatio="xMidYMid meet">

<g transform="translate(0.000000,512.000000) scale(0.100000,-0.100000)"
fill="#000000" stroke="none">
<path d="M2395 3825 c-31 -11 -147 -122 -541 -517 -546 -548 -543 -544 -567
-682 -14 -82 -1 -167 38 -251 24 -53 89 -122 519 -553 270 -272 507 -502 528
-513 110 -57 235 -15 292 98 22 45 21 135 -3 181 -11 20 -180 197 -375 392
-196 195 -356 358 -356 362 0 4 495 9 1099 10 l1099 3 44 30 c138 97 118 306
-34 370 -33 13 -166 15 -1123 15 -597 0 -1085 3 -1085 8 0 4 160 167 356 362
195 195 364 372 375 392 21 42 26 129 8 175 -15 40 -67 92 -114 114 -47 22
-105 23 -160 4z"/>
</g>
</svg>
